<svg xmlns="http://www.w3.org/2000/svg" width="40" height="40" viewBox="0 0 297 296" fill="none">
<path d="M0.515625 221.952C0.515625 262.781 33.6145 295.88 74.4441 295.88V148.023C33.6145 148.023 0.515625 181.122 0.515625 221.952Z" fill="white"/>
<path d="M0.515625 221.952C0.515625 262.781 33.6145 295.88 74.4441 295.88V148.023C33.6145 148.023 0.515625 181.122 0.515625 221.952Z" fill="white"/>
<path d="M296.195 74.095C296.195 33.2655 263.096 0.166577 222.267 0.166574L222.267 148.023C263.096 148.023 296.195 114.925 296.195 74.095Z" fill="white"/>
<path d="M74.4414 221.952C74.4414 262.781 107.54 295.88 148.37 295.88V148.023C107.54 148.023 74.4414 181.122 74.4414 221.952Z" fill="white"/>
<path d="M222.27 74.095C222.27 33.2655 189.171 0.166577 148.341 0.166574L148.341 148.023C189.171 148.023 222.27 114.925 222.27 74.095Z" fill="white"/>
<circle cx="222.272" cy="221.952" r="73.9284" fill="white"/>
<circle cx="74.4441" cy="74.1042" r="73.9284" fill="white"/>
</svg>  